<?xml version="1.0" encoding="UTF-8"?>
<!-- Created with Inkscape (http://www.inkscape.org/) -->
<svg width="1370.9mm" height="1401.1mm" version="1.1" viewBox="0 0 1370.9 1401.1" xmlns="http://www.w3.org/2000/svg">
 <defs>
  <filter id="filter747" x="-.40167" y="-.25518" width="1.887" height="1.5635" color-interpolation-filters="sRGB">
   <feFlood flood-color="rgb(0,0,0)" flood-opacity=".23137" result="flood"/>
   <feComposite in="flood" in2="SourceGraphic" operator="in" result="composite1"/>
   <feGaussianBlur in="composite1" result="blur" stdDeviation="6"/>
   <feOffset dx="3" dy="3" result="offset"/>
   <feComposite in="SourceGraphic" in2="offset" result="composite2"/>
  </filter>
 </defs>
 <g transform="translate(601.39 571.15)">
  <path d="m506.5 327.81c-11.783 20.243-393.63 238.69-418.06 239.16-24.423 0.4681-415.32-203.17-427.97-222.95-12.64-19.775-21.678-441.86-9.896-462.1 11.782-20.243 393.63-238.69 418.06-239.16 24.423-0.4681 415.32 203.17 427.97 222.95 12.64 19.775 21.678 441.86 9.896 462.1z" fill="#4ade80" fill-rule="evenodd" stroke-width="15.417"/>
  <g transform="matrix(7.4843 0 0 8.253 -658.01 -859.35)" fill="#fff" filter="url(#filter747)" stroke-width="4.5825" aria-label="E">
   <path d="m79.924 144.75v-56.431h35.463v6.1237h-27.983v18.138h24.417v6.0849h-24.417v19.999h28.37v6.0849z"/>
  </g>
 </g>
</svg>
